<svg xmlns="http://www.w3.org/2000/svg" version="1.1" xmlns:xlink="http://www.w3.org/1999/xlink" xmlns:svgjs="http://svgjs.dev/svgjs" width="1440" height="560" preserveAspectRatio="none" viewBox="0 0 1440 560"><g mask="url(&quot;#SvgjsMask1102&quot;)" fill="none"><path d="M -261.54378427348433,285 C -165.54,266.6 26.46,178.6 218.45621572651567,193 C 410.46,207.4 506.46,371 698.4562157265157,357 C 890.46,343 986.46,120.6 1178.4562157265157,123 C 1370.46,125.4 1606.15,341.2 1658.4562157265157,369 C 1710.76,396.8 1483.69,283.4 1440,262" stroke="rgba(16, 185, 129, 1)" stroke-width="2"></path><path d="M -135.00293295214942,144 C -39,188 153,342.4 344.9970670478506,364 C 537,385.6 633,249.4 824.9970670478506,252 C 1017,254.6 1113,389.6 1304.9970670478506,377 C 1497,364.4 1758,203.2 1784.9970670478506,189 C 1812,174.8 1509,282.6 1440,306" stroke="rgba(203, 213, 225, 1)" stroke-width="2"></path><path d="M -827.2577705403886,111 C -731.26,160 -539.26,357.8 -347.2577705403886,356 C -155.26,354.2 -59.26,112.2 132.7422294596114,102 C 324.74,91.8 420.74,302.8 612.7422294596114,305 C 804.74,307.2 927.29,102.4 1092.7422294596113,113 C 1258.19,123.6 1370.55,309 1440,358" stroke="rgba(203, 213, 225, 1)" stroke-width="2"></path></g><defs><mask id="SvgjsMask1102"><rect width="1440" height="560" fill="#ffffff"></rect></mask></defs></svg>